<?xml version="1.0" encoding="UTF-8" standalone="no" ?>
<!DOCTYPE svg PUBLIC "-//W3C//DTD SVG 1.1//EN" "http://www.w3.org/Graphics/SVG/1.1/DTD/svg11.dtd">
<svg xmlns="http://www.w3.org/2000/svg" xmlns:xlink="http://www.w3.org/1999/xlink" version="1.1" width="3181.8181818181824" height="2123.952136705584" viewBox="0 0 3181.8181818181824 2123.952136705584" xml:space="preserve">
<desc>Created with Fabric.js 5.3.0</desc>
<defs>
</defs>
<g transform="matrix(1 0 0 1 1590.9090909091 1061.9760683528)" id="ql4KwxlSqhYZCfYfL9PT6"  >
<g style=""   >
		<g transform="matrix(14.2172399514 0 0 14.2172399514 -299.1359817762 0.0293410024)" id="Qrvk28bn8UHMxP9e_zlZw"  >
<path style="stroke: none; stroke-width: 1; stroke-dasharray: none; stroke-linecap: butt; stroke-dashoffset: 0; stroke-linejoin: miter; stroke-miterlimit: 4; fill: rgb(39,47,81); fill-rule: nonzero; opacity: 1;"  transform=" translate(-27.4489774517, -48.3027168156)" d="M 40.24 14.71 C 25.223589302615363 18.35352116971181 14.344254104573405 31.37162980175062 13.425156475746995 46.796385757530004 C 12.506058846920585 62.221141713309386 21.76251152644968 76.43905894821253 36.240000000000016 81.84 C 36.35030491410049 81.88813701784208 36.46966584166029 81.91200920335405 36.59 81.91 C 37.04596450374329 81.87438280491227 37.41965820151854 81.53396579057771 37.49752374840588 81.08328944344186 C 37.57538929529323 80.632613096306 37.337580658908884 80.18654384622658 36.92 80 C 23.259923684415014 74.90662675229649 14.526797057068087 61.491084547855976 15.397845326831852 46.93837308573424 C 16.268893596595618 32.385661623612506 26.539902950847615 20.10760639596071 40.709999999999994 16.680000000000007 C 41.07643372922279 16.6150607142639 41.376496290993245 16.352012512542494 41.48884237814733 15.997232093909776 C 41.60118846530142 15.642451675277059 41.5072321498276 15.25463199012983 41.24496936795299 14.990607328426746 C 40.98270658607837 14.726582666723662 40.59552467159894 14.630031838114341 40.24 14.74 Z" stroke-linecap="round" />
</g>
		<g transform="matrix(14.2172399514 0 0 14.2172399514 299.5810682087 0.0287963922)" id="dwA-nwGMHI4TMgxEFsQdK"  >
<path style="stroke: none; stroke-width: 1; stroke-dasharray: none; stroke-linecap: butt; stroke-dashoffset: 0; stroke-linejoin: miter; stroke-miterlimit: 4; fill: rgb(39,47,81); fill-rule: nonzero; opacity: 1;"  transform=" translate(0, 0)" d="M -12.80102 -33.59268 C -13.15654 -33.70265 -13.54373 -33.606100000000005 -13.80599 -33.34207 C -14.068249999999999 -33.07805 -14.16221 -32.69023 -14.049859999999999 -32.33545 C -13.93751 -31.98067 -13.63745 -31.71762 -13.271019999999998 -31.65268 C 0.9226900000000011 -28.24215 11.218360000000002 -15.95323 12.09013 -1.38157 C 12.9619 13.19008 4.20483 26.61887 -9.48102 31.69732 C -9.938979999999999 31.863480000000003 -10.21056 32.33547 -10.12407 32.814910000000005 C -10.03757 33.294340000000005 -9.618179999999999 33.64168000000001 -9.13102 33.63732 C -9.01088 33.63732 -8.891919999999999 33.613530000000004 -8.78102 33.56732 C 5.69647 28.166380000000004 14.95292 13.94846 14.03382 -1.4762899999999988 C 13.11472 -16.901049999999998 2.2353900000000007 -29.91915 -12.78102 -33.56268 z" stroke-linecap="round" />
</g>
		<g transform="matrix(14.2172399514 0 0 14.2172399514 0 0)" id="krsgftJtWitIOZI0harQA"  >
<path style="stroke: none; stroke-width: 1; stroke-dasharray: none; stroke-linecap: butt; stroke-dashoffset: 0; stroke-linejoin: miter; stroke-miterlimit: 4; fill: rgb(39,47,81); fill-rule: nonzero; opacity: 1;"  transform=" translate(-48.4893469466, -48.3006530534)" d="M 48.5 3.54 C 30.394450529887077 3.5359554227303343 14.06962899987419 14.439896678604605 7.139066703045394 31.166469675578217 C 0.20850440621659772 47.89304267255183 4.037344464043919 67.14754128222499 16.839901590909466 79.95009840909054 C 29.642458717775014 92.7526555359561 48.89695732744818 96.5814955937834 65.6235303244218 89.6509332969546 C 82.3501033213954 82.72037100012581 93.25404457726967 66.39554947011294 93.25 48.29000000000001 C 93.22244468175157 23.586680234139042 73.20331976586094 3.5675553182484236 48.499999999999986 3.539999999999999 Z M 49.5 62.71 L 53.38 58.83 C 53.71977679592869 58.43323972254429 53.69693226968101 57.841805828454305 53.32756322061335 57.472436779386655 C 52.9581941715457 57.103067730319 52.36676027745571 57.080223204071316 51.970000000000006 57.42 L 49.50000000000001 59.88 L 49.50000000000001 51.2 L 53.14000000000001 47.550000000000004 C 53.53212217237987 47.1606392513693 53.53436074863072 46.52712217237987 53.14500000000001 46.135000000000005 C 52.7556392513693 45.74287782762014 52.122122172379875 45.740639251369295 51.73000000000001 46.13 L 49.500000000000014 48.370000000000005 L 49.500000000000014 36.53 C 49.500000000000014 35.977715250169204 49.05228474983081 35.53 48.500000000000014 35.53 C 47.94771525016922 35.53 47.500000000000014 35.977715250169204 47.500000000000014 36.53 L 47.500000000000014 50.53 C 47.42295750348221 50.74668906512099 47.42295750348221 50.983310934879015 47.500000000000014 51.2 L 47.500000000000014 53.75 L 45.140000000000015 51.39 C 44.749962545689094 51.0022764052892 44.12003745431094 51.0022764052892 43.73000000000002 51.39 C 43.54068734917692 51.57776659990556 43.43420167565835 51.83336246362944 43.43420167565835 52.1 C 43.43420167565835 52.36663753637056 43.54068734917692 52.622233400094444 43.73000000000002 52.81 L 47.50000000000002 56.580000000000005 L 47.50000000000002 71.91 C 38.530467666899675 71.40589540411638 31.516458098165323 63.98368627975482 31.519999999999996 55.00000000000001 C 31.52 46.72 45.03 29 48.45 24.66 C 51.86 29 65.38 46.75 65.38 55 C 65.3850620829378 63.9654662677242 58.39981439390253 71.38044043103785 49.45000000000001 71.91 Z M 49.5 91.02 L 49.5 73.91 C 59.53259138403013 73.34763247518583 67.37983306923056 65.04834051393638 67.38 55 C 67.38 44.86 49.959999999999994 23.34 49.22 22.42 C 49.03008907112727 22.1871044326874 48.74551040943562 22.05196123298823 48.445 22.05196123298823 C 48.14448959056438 22.05196123298823 47.85991092887273 22.1871044326874 47.67 22.42 C 46.93 23.340000000000003 29.520000000000003 44.86 29.520000000000003 55 C 29.52162164185278 65.0666227956058 37.39770045240001 73.37318444130842 47.45000000000001 73.91 L 47.45 91 C 24.013656764745583 90.45227236457752 5.379038549188252 71.15279256218408 5.652921059119194 47.71164971090622 C 5.926803569050136 24.27050685962837 25.007257203917863 5.411683837757778 48.45 5.411683837757778 C 71.89274279608215 5.411683837757778 90.97319643094986 24.270506859628327 91.24707894088081 47.71164971090619 C 91.52096145081177 71.15279256218405 72.88634323525449 90.45227236457748 49.45000000000006 91 Z" stroke-linecap="round" />
</g>
</g>
</g>
</svg>